<?xml version="1.0" standalone="no"?>
<!DOCTYPE svg PUBLIC "-//W3C//DTD SVG 20010904//EN"
 "http://www.w3.org/TR/2001/REC-SVG-20010904/DTD/svg10.dtd">
<svg version="1.0" xmlns="http://www.w3.org/2000/svg"
 width="300.000000pt" height="300.000000pt" viewBox="0 0 300.000000 300.000000"
 preserveAspectRatio="xMidYMid meet">
<metadata>
Created by potrace 1.11, written by Peter Selinger 2001-2013
</metadata>
<g transform="translate(0.000000,300.000000) scale(0.100000,-0.100000)"
fill="#000000" stroke="none">
<path d="M1340 2495 c-96 -30 -195 -134 -241 -254 -29 -73 -32 -200 -6 -250
22 -44 23 -42 -17 -87 -67 -76 -93 -110 -148 -194 -85 -130 -165 -284 -199
-384 -29 -83 -31 -98 -26 -181 9 -163 67 -272 184 -350 32 -22 62 -43 67 -47
13 -10 -22 -37 -48 -38 -34 0 -101 -40 -123 -73 -69 -101 -62 -206 17 -284 30
-29 31 -33 31 -114 0 -76 -15 -147 -46 -222 -7 -16 26 -17 651 -15 l659 3 0
62 0 62 17 -32 c9 -18 17 -39 18 -48 1 -39 32 -49 148 -49 l111 0 -40 74 c-37
70 -66 140 -74 179 -2 10 -6 26 -9 35 -16 54 -14 70 20 107 76 85 77 209 4
298 -55 66 -141 113 -202 110 -10 0 -18 1 -18 3 0 2 20 30 44 61 38 51 74 136
83 198 4 31 3 177 -1 200 -27 130 -57 213 -116 323 -113 212 -332 438 -478
493 -17 7 -21 13 -14 22 16 20 29 102 26 164 -6 121 -69 210 -164 232 -55 13
-55 13 -110 -4z"/>
</g>
</svg>
